<svg width="125" height="26" viewBox="0 0 125 26" fill="none" xmlns="http://www.w3.org/2000/svg">
<path d="M32.1378 4.90909H35.5511L39.1562 13.7045H39.3097L42.9148 4.90909H46.3281V18H43.6435V9.4794H43.5348L40.147 17.9361H38.3189L34.9311 9.44744H34.8224V18H32.1378V4.90909ZM52.9934 18.1918C52.0005 18.1918 51.1419 17.9808 50.4174 17.5589C49.6973 17.1328 49.1412 16.5405 48.7491 15.782C48.3571 15.0192 48.161 14.1349 48.161 13.1293C48.161 12.1151 48.3571 11.2287 48.7491 10.4702C49.1412 9.70739 49.6973 9.11506 50.4174 8.69318C51.1419 8.26705 52.0005 8.05398 52.9934 8.05398C53.9863 8.05398 54.8429 8.26705 55.563 8.69318C56.2875 9.11506 56.8457 9.70739 57.2377 10.4702C57.6298 11.2287 57.8258 12.1151 57.8258 13.1293C57.8258 14.1349 57.6298 15.0192 57.2377 15.782C56.8457 16.5405 56.2875 17.1328 55.563 17.5589C54.8429 17.9808 53.9863 18.1918 52.9934 18.1918ZM53.0062 16.0824C53.4579 16.0824 53.835 15.9545 54.1376 15.6989C54.4402 15.4389 54.6681 15.0852 54.8216 14.6378C54.9792 14.1903 55.0581 13.6811 55.0581 13.1101C55.0581 12.5391 54.9792 12.0298 54.8216 11.5824C54.6681 11.1349 54.4402 10.7812 54.1376 10.5213C53.835 10.2614 53.4579 10.1314 53.0062 10.1314C52.5502 10.1314 52.1667 10.2614 51.8556 10.5213C51.5488 10.7812 51.3166 11.1349 51.1589 11.5824C51.0055 12.0298 50.9288 12.5391 50.9288 13.1101C50.9288 13.6811 51.0055 14.1903 51.1589 14.6378C51.3166 15.0852 51.5488 15.4389 51.8556 15.6989C52.1667 15.9545 52.5502 16.0824 53.0062 16.0824ZM63.2143 18.1598C62.4686 18.1598 61.7931 17.968 61.188 17.5845C60.5872 17.1967 60.1099 16.6278 59.7562 15.8778C59.4068 15.1236 59.2321 14.1989 59.2321 13.1037C59.2321 11.9787 59.4132 11.0433 59.7754 10.2976C60.1376 9.54759 60.6191 8.98722 61.22 8.61648C61.8251 8.24148 62.4877 8.05398 63.2079 8.05398C63.7576 8.05398 64.2157 8.14773 64.5822 8.33523C64.9529 8.51847 65.2512 8.74858 65.4771 9.02557C65.7072 9.2983 65.8819 9.56676 66.0012 9.83097H66.0843V4.90909H68.801V18H66.1163V16.4276H66.0012C65.8734 16.7003 65.6923 16.9709 65.4579 17.2393C65.2278 17.5036 64.9274 17.723 64.5566 17.8977C64.1902 18.0724 63.7427 18.1598 63.2143 18.1598ZM64.0772 15.9929C64.5162 15.9929 64.8869 15.8736 65.1895 15.6349C65.4963 15.392 65.7306 15.0533 65.8926 14.6186C66.0588 14.1839 66.1419 13.6747 66.1419 13.0909C66.1419 12.5071 66.0609 12 65.899 11.5696C65.737 11.1392 65.5027 10.8068 65.1958 10.5724C64.889 10.3381 64.5162 10.2209 64.0772 10.2209C63.6298 10.2209 63.2527 10.3423 62.9458 10.5852C62.639 10.8281 62.4068 11.1648 62.2491 11.5952C62.0914 12.0256 62.0126 12.5241 62.0126 13.0909C62.0126 13.6619 62.0914 14.1669 62.2491 14.6058C62.411 15.0405 62.6433 15.3814 62.9458 15.6286C63.2527 15.8714 63.6298 15.9929 64.0772 15.9929ZM75.5142 18.1918C74.5043 18.1918 73.6349 17.9872 72.9062 17.5781C72.1818 17.1648 71.6236 16.581 71.2315 15.8267C70.8395 15.0682 70.6435 14.1712 70.6435 13.1357C70.6435 12.1257 70.8395 11.2393 71.2315 10.4766C71.6236 9.71378 72.1754 9.11932 72.8871 8.69318C73.603 8.26705 74.4425 8.05398 75.4055 8.05398C76.0533 8.05398 76.6563 8.15838 77.2145 8.36719C77.777 8.57173 78.267 8.88068 78.6847 9.29403C79.1065 9.70739 79.4347 10.2273 79.669 10.8537C79.9034 11.4759 80.0206 12.2045 80.0206 13.0398V13.7876H71.7301V12.1001H77.4574C77.4574 11.7081 77.3722 11.3608 77.2017 11.0582C77.0313 10.7557 76.7947 10.5192 76.4922 10.3487C76.1939 10.174 75.8466 10.0866 75.4503 10.0866C75.0369 10.0866 74.6705 10.1825 74.3509 10.3743C74.0355 10.5618 73.7884 10.8153 73.6094 11.1349C73.4304 11.4503 73.3388 11.8018 73.3345 12.1896V13.794C73.3345 14.2798 73.424 14.6996 73.603 15.0533C73.7862 15.407 74.044 15.6797 74.3764 15.8714C74.7088 16.0632 75.103 16.1591 75.5589 16.1591C75.8615 16.1591 76.1385 16.1165 76.3899 16.0312C76.6413 15.946 76.8565 15.8182 77.0355 15.6477C77.2145 15.4773 77.3509 15.2685 77.4446 15.0213L79.9631 15.1875C79.8352 15.7926 79.5732 16.321 79.1768 16.7727C78.7848 17.2202 78.2777 17.5696 77.6555 17.821C77.0376 18.0682 76.3239 18.1918 75.5142 18.1918ZM81.7976 18V8.18182H84.4375V9.89489H84.5398C84.7188 9.28551 85.0192 8.82528 85.4411 8.5142C85.8629 8.19886 86.3487 8.04119 86.8984 8.04119C87.0348 8.04119 87.1818 8.04972 87.3395 8.06676C87.4972 8.08381 87.6357 8.10724 87.755 8.13707V10.5533C87.6271 10.5149 87.4503 10.4808 87.2244 10.451C86.9986 10.4212 86.7919 10.4062 86.6044 10.4062C86.2038 10.4062 85.8459 10.4936 85.5305 10.6683C85.2195 10.8388 84.9723 11.0774 84.7891 11.3842C84.6101 11.6911 84.5206 12.0447 84.5206 12.4453V18H81.7976ZM91.8858 12.3239V18H89.1628V8.18182H91.758V9.91406H91.873C92.0904 9.34304 92.4547 8.89133 92.9661 8.55895C93.4775 8.2223 94.0975 8.05398 94.8262 8.05398C95.508 8.05398 96.1025 8.20312 96.6096 8.50142C97.1167 8.79972 97.5108 9.22585 97.7921 9.77983C98.0733 10.3295 98.214 10.9858 98.214 11.7486V18H95.4909V12.2344C95.4952 11.6335 95.3418 11.1648 95.0307 10.8281C94.7196 10.4872 94.2914 10.3168 93.7459 10.3168C93.3794 10.3168 93.0556 10.3956 92.7743 10.5533C92.4973 10.7109 92.28 10.9411 92.1223 11.2436C91.9689 11.5419 91.8901 11.902 91.8858 12.3239ZM100.36 18V8.18182H103.083V18H100.36ZM101.728 6.91619C101.323 6.91619 100.976 6.78196 100.686 6.51349C100.401 6.24077 100.258 5.91477 100.258 5.53551C100.258 5.16051 100.401 4.83878 100.686 4.57031C100.976 4.29758 101.323 4.16122 101.728 4.16122C102.133 4.16122 102.478 4.29758 102.763 4.57031C103.053 4.83878 103.198 5.16051 103.198 5.53551C103.198 5.91477 103.053 6.24077 102.763 6.51349C102.478 6.78196 102.133 6.91619 101.728 6.91619ZM105.213 18V16.3764L110.02 10.4254V10.3551H105.379V8.18182H113.299V9.95241L108.786 15.7564V15.8267H113.465V18H105.213ZM119.741 18.1918C118.731 18.1918 117.862 17.9872 117.133 17.5781C116.408 17.1648 115.85 16.581 115.458 15.8267C115.066 15.0682 114.87 14.1712 114.87 13.1357C114.87 12.1257 115.066 11.2393 115.458 10.4766C115.85 9.71378 116.402 9.11932 117.114 8.69318C117.83 8.26705 118.669 8.05398 119.632 8.05398C120.28 8.05398 120.883 8.15838 121.441 8.36719C122.004 8.57173 122.494 8.88068 122.911 9.29403C123.333 9.70739 123.661 10.2273 123.896 10.8537C124.13 11.4759 124.247 12.2045 124.247 13.0398V13.7876H115.957V12.1001H121.684C121.684 11.7081 121.599 11.3608 121.428 11.0582C121.258 10.7557 121.021 10.5192 120.719 10.3487C120.42 10.174 120.073 10.0866 119.677 10.0866C119.263 10.0866 118.897 10.1825 118.577 10.3743C118.262 10.5618 118.015 10.8153 117.836 11.1349C117.657 11.4503 117.565 11.8018 117.561 12.1896V13.794C117.561 14.2798 117.651 14.6996 117.83 15.0533C118.013 15.407 118.271 15.6797 118.603 15.8714C118.935 16.0632 119.33 16.1591 119.786 16.1591C120.088 16.1591 120.365 16.1165 120.616 16.0312C120.868 15.946 121.083 15.8182 121.262 15.6477C121.441 15.4773 121.577 15.2685 121.671 15.0213L124.19 15.1875C124.062 15.7926 123.8 16.321 123.403 16.7727C123.011 17.2202 122.504 17.5696 121.882 17.821C121.264 18.0682 120.55 18.1918 119.741 18.1918Z" fill="black"/>
<path d="M20.6483 11.4887C20.2634 12.4187 19.8097 13.2979 19.3077 14.1043C18.2167 15.8614 16.901 17.2762 15.5849 18.1322C15.509 18.1817 15.4334 18.2289 15.3579 18.2744C15.2339 18.0739 15.0477 17.9096 14.8143 17.813L10.5807 16.061C10.3473 15.9644 10.0997 15.949 9.87024 16.0031C9.84912 15.9179 9.8291 15.8312 9.81032 15.7422C9.48379 14.2068 9.55269 12.2757 10.0221 10.2617C10.237 9.33611 10.537 8.39376 10.9219 7.4638C12.968 2.51932 19.3251 0.922318 19.3251 0.922318C19.3251 0.922318 22.6945 6.54467 20.6483 11.4887Z" fill="#615DFF"/>
<path d="M20.6523 11.4794C20.6525 11.4787 20.6531 11.4774 20.6533 11.4768C20.6529 11.4775 20.6525 11.4782 20.6523 11.4794ZM20.6569 11.4682C20.6569 11.4676 20.6573 11.4669 20.6575 11.4668C20.6571 11.467 20.6571 11.4676 20.6569 11.4682ZM20.6612 11.4576C20.6614 11.4565 20.6617 11.4558 20.6622 11.455C20.6618 11.4558 20.6614 11.4565 20.6612 11.4576ZM20.6658 11.4465C20.6658 11.4459 20.666 11.4458 20.6661 11.4452C20.6661 11.4458 20.6658 11.4459 20.6658 11.4465ZM20.6701 11.4359C20.6703 11.4347 20.6705 11.4347 20.6708 11.4335C20.6707 11.4346 20.6703 11.4353 20.6701 11.4359ZM20.6746 11.4248C20.6746 11.4242 20.6748 11.4241 20.6748 11.4236C20.6748 11.4241 20.6746 11.4242 20.6746 11.4248ZM20.6787 11.4143C20.679 11.4131 20.6792 11.4125 20.6797 11.4117C20.6793 11.4124 20.6791 11.4136 20.6787 11.4143ZM20.6831 11.4032C20.6834 11.4026 20.6833 11.4026 20.6835 11.402C20.6834 11.4025 20.6833 11.4026 20.6831 11.4032ZM20.6876 11.3926C20.6878 11.3914 20.6879 11.3914 20.6883 11.3907C20.6881 11.3913 20.6876 11.3915 20.6876 11.3926ZM20.6919 11.3815C20.6919 11.381 20.6922 11.3809 20.6921 11.3803C20.6921 11.3809 20.6919 11.381 20.6919 11.3815ZM20.6961 11.3705C20.6963 11.3699 20.6966 11.3697 20.6969 11.3691C20.6965 11.3692 20.6963 11.3699 20.6961 11.3705ZM20.7004 11.36C20.7005 11.3594 20.7007 11.3593 20.7007 11.3588C20.7007 11.3593 20.7005 11.3594 20.7004 11.36ZM20.7046 11.349C20.7048 11.3483 20.7051 11.3477 20.7053 11.347C20.7051 11.3477 20.7048 11.3483 20.7046 11.349ZM20.7088 11.3385C20.7088 11.3379 20.7092 11.3372 20.7094 11.3371C20.709 11.3373 20.7089 11.3379 20.7088 11.3385ZM20.7131 11.3274C20.7133 11.3268 20.7137 11.3261 20.7139 11.3254C20.7136 11.3261 20.7134 11.3267 20.7131 11.3274ZM20.7172 11.3164C20.7174 11.3163 20.7176 11.3157 20.7178 11.3156C20.7175 11.3157 20.7174 11.3163 20.7172 11.3164ZM20.7216 11.3058C20.7218 11.3052 20.722 11.3046 20.7222 11.3039C20.722 11.3046 20.7218 11.3052 20.7216 11.3058ZM20.7258 11.2948C20.7259 11.2942 20.7259 11.2942 20.7261 11.2941C20.726 11.2942 20.7258 11.2943 20.7258 11.2948ZM20.73 11.2838C20.73 11.2832 20.7303 11.2831 20.7303 11.2826C20.7303 11.2831 20.7301 11.2832 20.73 11.2838ZM20.7343 11.2727C20.7343 11.2722 20.7341 11.2728 20.7342 11.2722L20.7343 11.2727Z" fill="#EBF1F0"/>
<path d="M15.3579 18.2744C15.2339 18.0739 15.0477 17.9096 14.8143 17.813L10.5807 16.061C10.3473 15.9644 10.0997 15.949 9.87024 16.0031C9.86279 15.9729 9.85566 15.9425 9.84838 15.9117C10.1821 15.8006 10.5239 15.6731 10.872 15.5288C12.1025 15.0186 13.4104 14.3038 14.7126 13.4186C15.6757 12.7652 16.6352 12.0182 17.558 11.192C19.2732 9.65693 20.3969 7.7874 21.134 6.00492C21.4097 7.64285 21.4111 9.49505 20.7342 11.2722C20.7342 11.2728 20.7343 11.2722 20.7343 11.2727C20.733 11.276 20.7317 11.2793 20.7303 11.2826C20.7303 11.2831 20.73 11.2832 20.73 11.2838C20.7287 11.2871 20.7273 11.2904 20.7261 11.2941C20.7261 11.2941 20.7259 11.2942 20.7259 11.2948C20.7245 11.2976 20.7234 11.3007 20.7222 11.304C20.722 11.3046 20.7218 11.3052 20.7216 11.3059C20.7203 11.3091 20.719 11.3124 20.7178 11.3156L20.7172 11.3164C20.7162 11.3196 20.715 11.3223 20.7139 11.3254C20.7137 11.3261 20.7133 11.3268 20.7131 11.3274C20.7118 11.3307 20.7106 11.3339 20.7094 11.3371C20.7094 11.3371 20.7088 11.3379 20.7088 11.3385C20.7076 11.3412 20.7066 11.3443 20.7053 11.347C20.7051 11.3477 20.7048 11.3483 20.7046 11.349C20.7033 11.3522 20.7021 11.3555 20.7007 11.3588C20.7008 11.3593 20.7005 11.3594 20.7004 11.36C20.6991 11.3627 20.698 11.3659 20.6969 11.3691C20.6967 11.3697 20.6963 11.3699 20.6961 11.3705C20.6948 11.3738 20.6935 11.3771 20.6922 11.3803C20.6922 11.3809 20.6919 11.381 20.6919 11.3816C20.6906 11.3843 20.6895 11.3875 20.6883 11.3907C20.6879 11.3914 20.6878 11.3914 20.6876 11.3926C20.6862 11.3954 20.6849 11.3992 20.6835 11.402C20.6833 11.4026 20.6834 11.4026 20.6832 11.4032C20.682 11.4059 20.6809 11.4091 20.6797 11.4117C20.6792 11.4125 20.679 11.4131 20.6788 11.4143C20.6775 11.4176 20.6763 11.4208 20.6748 11.4236C20.6748 11.4242 20.6746 11.4242 20.6746 11.4248C20.6732 11.4275 20.6722 11.4307 20.6708 11.4335C20.6705 11.4347 20.6703 11.4347 20.6701 11.4359C20.6688 11.4392 20.6674 11.442 20.6661 11.4453C20.666 11.4458 20.6658 11.4459 20.6658 11.4465C20.6645 11.4492 20.6633 11.4519 20.6622 11.4551C20.6617 11.4558 20.6614 11.4565 20.6612 11.4577C20.6599 11.4604 20.6586 11.4636 20.6575 11.4668C20.6575 11.4668 20.6569 11.4676 20.6569 11.4682C20.6557 11.4709 20.6545 11.4741 20.6533 11.4768C20.6531 11.4774 20.6525 11.4787 20.6523 11.4794C20.651 11.4826 20.6496 11.4854 20.6483 11.4887C20.2634 12.4187 19.8097 13.2979 19.3077 14.1043C18.2167 15.8614 16.901 17.2762 15.5849 18.1322C15.509 18.1817 15.4334 18.2289 15.3579 18.2744Z" fill="#5350D7"/>
<path d="M18.652 9.25223C17.9593 10.9267 16.3371 11.8446 15.029 11.3034C13.7207 10.7618 13.2219 8.96617 13.9146 7.29172C14.6074 5.61776 16.2295 4.69937 17.5378 5.24097C18.8459 5.78211 19.3448 7.57827 18.652 9.25223Z" fill="#B9D1FF"/>
<path d="M15.0216 7.9764C14.9519 8.00533 14.871 8.00769 14.7955 7.97617C14.645 7.91402 14.5734 7.74151 14.6357 7.5906C14.9174 6.90937 15.4346 6.35839 16.0188 6.11617C16.3025 5.99855 16.7356 5.89765 17.1882 6.08482C17.339 6.14744 17.4105 6.31995 17.3483 6.47087C17.2858 6.62136 17.1131 6.69295 16.9625 6.6308C16.6967 6.52081 16.4256 6.58678 16.245 6.66166C15.8022 6.84522 15.4045 7.27674 15.1813 7.81624C15.1503 7.89193 15.0915 7.94744 15.0216 7.9764" fill="#E6F6F7"/>
<path d="M15.4462 19.3366L15.1101 20.149L8.72107 17.5052L9.05709 16.6927C9.20666 16.3313 9.51669 16.0858 9.87048 16.0036C10.1 15.9495 10.347 15.9645 10.5805 16.0611L10.6049 16.0712L14.7907 17.8031L14.8144 17.8129C15.0479 17.9096 15.2338 18.074 15.3579 18.2744C15.5502 18.5826 15.5957 18.9752 15.4462 19.3366" fill="#4B47D3"/>
<path d="M9.81026 15.7422L4.52493 13.5549C5.45322 11.3118 7.72499 10.0322 10.0221 10.2617C9.55267 12.2757 9.48378 14.2068 9.81026 15.7422Z" fill="#FA9A81"/>
<path d="M20.8701 20.3191L15.5849 18.1322C16.9009 17.2762 18.2166 15.8615 19.3076 14.1044C21.0954 15.5651 21.7984 18.076 20.8701 20.3191" fill="#FA9A81"/>
<path d="M14.5211 19.9053C13.7956 21.6572 10.1667 23.0531 10.1667 23.0531C10.1667 23.0531 8.58535 19.501 9.31012 17.7488L14.5211 19.9053Z" fill="#FA9A81"/>
<path d="M15.4392 2.9383C15.453 2.9326 15.4666 2.92585 15.4797 2.9177C15.5585 2.87028 15.6368 2.82359 15.7149 2.77811C15.8557 2.6957 15.9035 2.51523 15.8213 2.37394C15.7392 2.23314 15.5587 2.18559 15.4176 2.26759C15.3364 2.31489 15.2549 2.36343 15.1732 2.41314C15.0338 2.49773 14.9895 2.67946 15.0741 2.81868C15.1507 2.94482 15.3069 2.99316 15.4392 2.9383" fill="#222452"/>
<path d="M20.8216 16.9926C21.0757 17.9713 21.0339 18.9809 20.7025 19.9302L16.1958 18.0653C17.3237 17.2255 18.4306 16.0033 19.3717 14.5537C20.0695 15.2075 20.58 16.0618 20.8216 16.9926ZM15.1734 19.224L14.9502 19.7635L9.1068 17.3453L9.33002 16.8058C9.43691 16.5467 9.66391 16.3543 9.93812 16.2908C10.1153 16.2491 10.2983 16.2639 10.4676 16.3341L14.7016 18.0859C14.8706 18.1557 15.0108 18.2746 15.1074 18.4307C15.2558 18.6686 15.2803 18.965 15.1734 19.224V19.224ZM10.326 22.6685C10.01 21.8855 9.14799 19.5492 9.49177 18.1434L10.7182 18.6512L10.4669 19.2581C10.4046 19.409 10.4761 19.5815 10.6269 19.6441C10.7022 19.6752 10.783 19.6728 10.8529 19.6439C10.9227 19.615 10.9815 19.5594 11.0127 19.4842L11.2638 18.8769L12.35 19.3264L11.9636 20.2598C11.9014 20.4107 11.9729 20.5832 12.1236 20.6458C12.199 20.6769 12.2797 20.6745 12.3496 20.6456C12.4194 20.6166 12.4782 20.5611 12.5094 20.4859L12.8956 19.5521L14.1135 20.0563C13.3633 21.2934 11.1027 22.3378 10.326 22.6685V22.6685ZM6.91001 11.2356C7.73885 10.7478 8.70348 10.5041 9.65917 10.5346C9.30111 12.2255 9.22041 13.8724 9.42505 15.2633L4.9184 13.3983C5.35495 12.4923 6.03887 11.7487 6.91001 11.2356ZM21.0376 4.26921C20.4472 2.23232 19.6135 0.829016 19.5784 0.770368C19.5115 0.658785 19.3794 0.604257 19.2531 0.635851C19.2193 0.644391 18.4119 0.850191 17.273 1.33716C17.1231 1.40148 17.0535 1.57459 17.1176 1.72447C17.1814 1.87342 17.3531 1.94321 17.5022 1.88138L17.5055 1.88002C18.2615 1.55618 18.8739 1.35967 19.1815 1.26876C19.4252 1.71627 20.0248 2.89645 20.4703 4.43339C20.9924 6.23468 21.3997 8.90097 20.3755 11.3762C20.0038 12.2744 19.5601 13.1397 19.0569 13.9488C18.0003 15.6496 16.7112 17.0468 15.4259 17.8829C15.2867 17.7363 15.1184 17.6192 14.9276 17.5404L10.6935 15.7886C10.5024 15.7094 10.3008 15.6733 10.0986 15.6785C9.78026 14.179 9.85522 12.2793 10.3098 10.3288C10.5251 9.4008 10.823 8.47521 11.1946 7.57643C11.7384 6.2626 12.6528 5.0683 13.9125 4.02698C14.0381 3.92297 14.0559 3.73696 13.9519 3.61123C13.848 3.48547 13.6617 3.46764 13.5361 3.57162C12.2013 4.67522 11.2299 5.9467 10.649 7.35079C10.2977 8.19961 10.0112 9.07241 9.79441 9.94907C8.6899 9.89068 7.56862 10.1627 6.61039 10.7266C5.54265 11.3551 4.72719 12.2942 4.25215 13.4424C4.22212 13.5144 4.22215 13.5958 4.25211 13.668C4.28227 13.7408 4.33964 13.7978 4.41201 13.8279L9.38443 15.8855C9.11836 16.045 8.90538 16.2868 8.7842 16.5797L8.44813 17.3921C8.41825 17.4646 8.41814 17.5455 8.44829 17.6183C8.47825 17.6905 8.53578 17.7481 8.60799 17.7777L8.94214 17.9162C8.42036 19.8192 9.83346 23.0306 9.89692 23.1732C9.96076 23.3166 10.126 23.3852 10.2727 23.3288C10.2914 23.3216 10.3615 23.2942 10.4717 23.2485C11.22 22.9382 13.8126 21.7787 14.663 20.2836L14.9972 20.422C15.0725 20.4531 15.1533 20.4508 15.2231 20.4218C15.293 20.3929 15.3518 20.3373 15.383 20.2621L15.719 19.4497C15.8403 19.1568 15.8606 18.8353 15.785 18.5344L20.7572 20.5921C20.8325 20.6232 20.9133 20.6208 20.9832 20.5919C21.0529 20.5629 21.1117 20.5074 21.143 20.4322C21.618 19.284 21.7045 18.0433 21.3932 16.8442C21.1137 15.7678 20.5128 14.7833 19.69 14.0442C20.1557 13.2703 20.57 12.4506 20.9212 11.6018C21.7837 9.51764 21.824 6.98214 21.0376 4.26921" fill="#222452"/>
<path d="M15.9272 5.5509C16.4247 5.34465 16.9498 5.31706 17.4248 5.51353C18.5806 5.99214 19.0086 7.61828 18.3793 9.13968C17.7499 10.6606 16.2974 11.5087 15.1418 11.0305C14.595 10.8043 14.1915 10.3115 14.0059 9.64323C13.8131 8.94896 13.8776 8.154 14.1875 7.40483C14.5583 6.50912 15.2143 5.84646 15.9272 5.5509ZM13.437 9.80152C13.6723 10.6486 14.1975 11.2789 14.9159 11.576C15.5383 11.8338 16.2228 11.8002 16.8618 11.5353C17.7184 11.1801 18.4931 10.4087 18.9249 9.36532C19.679 7.5436 19.1073 5.57105 17.6507 4.96802C16.1942 4.36548 14.3957 5.35701 13.6419 7.17919C13.2817 8.04919 13.209 8.98083 13.437 9.80152Z" fill="#222452"/>
<path d="M6.07556 7.02529L6.30998 6.92809L6.40721 7.16261C6.46965 7.3132 6.64245 7.38471 6.79309 7.32226C6.94368 7.25982 7.01519 7.08702 6.95275 6.93643L6.85552 6.70191L7.08995 6.60472C7.24059 6.54227 7.31224 6.36995 7.24961 6.21889C7.18718 6.0683 7.01443 5.99677 6.86379 6.05923L6.62936 6.15642L6.53233 5.92237C6.4697 5.77131 6.29709 5.70026 6.1465 5.7627C5.99586 5.82516 5.92415 5.99749 5.98678 6.14855L6.08382 6.3826L5.8494 6.47979C5.69876 6.54225 5.6273 6.71503 5.68973 6.86562C5.75236 7.01668 5.92492 7.08774 6.07556 7.02529Z" fill="#222452"/>
<path d="M6.49105 17.6348L6.25668 17.7319L6.15945 17.4974C6.09701 17.3468 5.92421 17.2753 5.77357 17.3378C5.62293 17.4002 5.55147 17.573 5.61391 17.7236L5.71114 17.9581L5.47671 18.0553C5.32607 18.1178 5.25437 18.2901 5.317 18.4412C5.37943 18.5918 5.55223 18.6633 5.70287 18.6008L5.9373 18.5036L6.03433 18.7377C6.09677 18.8883 6.26952 18.9598 6.42016 18.8973C6.5708 18.8349 6.64231 18.6621 6.57988 18.5115L6.48284 18.2774L6.71722 18.1803C6.86786 18.1178 6.93936 17.945 6.87693 17.7944C6.8143 17.6434 6.64169 17.5723 6.49105 17.6348Z" fill="#222452"/>
<path d="M25.0217 13.9483L24.7873 14.0455L24.69 13.8109C24.6276 13.6603 24.4548 13.5888 24.3042 13.6513C24.1536 13.7137 24.0821 13.8865 24.1445 14.0371L24.2417 14.2716L24.0073 14.3688C23.8567 14.4313 23.7852 14.6041 23.8476 14.7547C23.9101 14.9053 24.0828 14.9768 24.2335 14.9143L24.4679 14.8171L24.5651 15.0516C24.6275 15.2022 24.8003 15.2738 24.951 15.2113C25.1016 15.1489 25.1731 14.9761 25.1107 14.8255L25.0134 14.591L25.2478 14.4938C25.3985 14.4313 25.4699 14.2585 25.4075 14.1079C25.3451 13.9573 25.1723 13.8858 25.0217 13.9483Z" fill="#222452"/>
</svg>
